<?xml version="1.0" encoding="UTF-8"?>
<svg id="Layer_2" data-name="Layer 2" xmlns="http://www.w3.org/2000/svg" viewBox="0 0 476.37 766.65">
  <defs>
    <style>
      .cls-1, .cls-2, .cls-3 {
        fill-rule: evenodd;
      }

      .cls-1, .cls-4 {
        fill: #003573;
      }

      .cls-1, .cls-4, .cls-3, .cls-5 {
        stroke-width: 0px;
      }

      .cls-2 {
        stroke: #003573;
        stroke-width: .25px;
      }

      .cls-2, .cls-3, .cls-5 {
        fill: #fff;
      }

      .cls-2, .cls-6 {
        stroke-miterlimit: 10;
      }

      .cls-7 {
        isolation: isolate;
      }

      .cls-6 {
        stroke-width: 5.5px;
      }

      .cls-6, .cls-8 {
        fill: none;
        stroke: #fff;
      }

      .cls-8 {
        stroke-miterlimit: 22.93;
        stroke-width: .28px;
      }
    </style>
  </defs>
  <g id="_Слой_1" data-name=" Слой 1">
    <path class="cls-1" d="M394.26,538.02c.61,6.76-1.89,24.04-6.92,34.93-12.89,27.93-23.21,25.8-39.19,30.73l-110.37,162.72-81.67-119.77-19.03,4.23c-19.53,4.11-34.71-7.99-31.57-28.77,2.26-14.99,6.03-24.49,9.32-36.3L0,415.34l28.19-41.62-21.68-32.01L237.79.25l231.28,341.46-21.68,32.01,28.19,41.62-81.31,122.68h-.01Z"/>
    <path class="cls-8" d="M394.89,538.02c.61,6.76-1.89,24.04-6.92,34.93-12.89,27.93-23.21,25.8-39.19,30.73l-110.37,162.72-81.67-119.78-19.03,4.23c-19.53,4.11-34.71-7.99-31.57-28.77,2.26-14.99,6.03-24.49,9.32-36.3L.62,415.34l28.19-41.62-21.68-32.01L238.41.25l231.28,341.46-21.68,32.01,28.19,41.62-81.31,122.68h0Z"/>
    <path class="cls-3" d="M166.78,526.11l-127.09-188.14L237.79,45.49l198.09,292.47-101.81,150.16M225.75,203.93h0c-.92,8.09-.72,16.51.87,24.49,8.91-6.07,16.65-13.28,22.26-22.6-7.64-1.58-15.32-2.42-23.13-1.9h0ZM154.9,314.2h0c18.53,2.36,36.85-10.38,38.92-29.36-19.29,2.3-25.71-9.47-25.64-24.54.12-25.42,16.97-45.11,40-52.9-.13,10.26.82,19.55,2.82,30.26-7.53,3.97-15.56,7.73-23.73,11.75v24.59c8.32-3.9,16.84-8.33,25.95-14.72,3.13,31.53,5.96,91.39-8.67,118.74-8.26-3.01-16.21-6.2-23.46-8.5-11.78-3.75-25.95-5.97-36.23,2.71-11.91,10.05-9.86,29.93,9.55,38.23,19.53,8.36,42.19.71,57.7-12.46,5.63,2.84,11.56,5.64,17.6,8.03,68.92,27.26,135.5-35.62,132.18-104.68-2.42-50.48-40.44-94.5-89.93-109.45,5.51-13.62,7-28.9.74-42.57-7.92-17.33-24.8-18.76-39.17-8.19-13.16,9.68-20.42,28.39-23.52,45.81-62.36,8.84-95.02,60.31-87.34,96.92,3.65,17.33,17.29,28.41,32.22,30.33h0ZM229.85,185.63h0c8.95.05,17.67.87,26.08,2.4,3-16.99.77-24.62-4.64-26.23-7.31-2.18-16.5,7.52-21.44,23.83h0ZM262.51,209.69h0c-8.33,12.75-19,24.4-30.34,34.55,7.03,13.18,20.11,23.68,42.47,27.46-10.78,43.22-27.81,85.97-49.46,112.78,47.11,9.89,79.87-20.96,88.7-64.87,8.66-43.01-7.13-93.61-51.36-109.91h-.01ZM172.64,381.14h0c-14.68.62-13.57,19.36,4.15,17.82,7.19-.63,14.61-4.72,19.3-9.35-6.21-3.26-11.61-5.96-15.77-7.3-2.9-.92-5.46-1.27-7.68-1.18h0Z"/>
    <polygon class="cls-3" points="311.8 604.9 238.41 713.43 180.66 628.29 192.79 625.8 238.41 693.02 295.75 608.2 311.8 604.9 311.8 604.9"/>
    <path class="cls-2" d="M394.89,538.02c.61,6.76-1.89,24.04-6.92,34.93-12.89,27.93-23.21,25.8-39.19,30.73l-110.37,162.72-81.67-119.78-19.03,4.23c-19.53,4.11-34.71-7.99-31.57-28.77,2.26-14.99,6.03-24.49,9.32-36.3L.62,415.34l28.19-41.62-21.68-32.01L238.41.25l231.28,341.46-21.68,32.01,28.19,41.62-81.31,122.68h0ZM380.09,533.67c4.32,11.76-.75,23.54-6.92,38.34-6.01,14.42-17.45,14.8-30.56,17.55l-104.19,152.36-75.47-110.62c-12.17,2.59-23.34,5.09-30.53,6.85-11.12,2.15-14.79-5.83-12.12-16.44,3.46-11,5.88-23.49,10.74-36.21L17.21,415.34l28.19-41.62-21.68-32.01L238.41,24.74l214.69,316.97-21.68,32.01,28.19,41.62c-17.04,24.97-62.49,93.36-79.52,118.33h0Z"/>
    <line class="cls-6" x1="13.41" y1="338.49" x2="145.31" y2="533.06"/>
    <line class="cls-6" x1="462.36" y1="339.92" x2="341.59" y2="518.08"/>
    <path class="cls-1" d="M413.04,587.82l-327.47,75.49c-9.2,2.12-15.81-4.95-14.75-15.79l6.51-67.01c1.05-10.84,9.37-21.35,18.57-23.47l327.47-75.49c9.2-2.12,15.81,4.95,14.75,15.79l-6.51,67.01c-1.05,10.84-9.37,21.35-18.57,23.47h0Z"/>
    <path class="cls-3" d="M192.33,148.72c34.26-36.32,45.72-38.68,53.5-37.81,7.62.86,14.42,5.13,34.24,29.25,23.83,29,38.98,53.25,41.38,57.07,42.15,67.3,45.68,57.65,54.22,81.32,3.98,11.05,23.81,66.03-3.57,104.15-15.95,22.21-40.54,28.41-83.46,39.24-36.56,9.22-62.51,17.09-97.02,11.41-20.67-3.4-62.49-10.28-88.46-46.37-32.58-45.28-14.64-100.99-12.84-106.29,2.69-7.91,3.47-7.31,58.5-79.9,9.11-12.02,22.78-30.09,43.52-52.08h-.01Z"/>
    <path class="cls-4" d="M186.19,562.44v-78.71c-1.42-1.42-4.26-3.58-4.26-3.58l26.99-10.55v-18.31c9.34.04,29.31.28,38.65.32v9.9l11.02-2.35v-20.53c12.77.04,25.55.08,38.32.12v20.57s10.37,2.7,11.72,3.16v-10.59c9.17-.04,17.3-.15,26.47-.19-.73,0,11.41,0,10.68,0v18.41l15.51,4.92s-4.97.69-7.46,1.03c.04,3,.09,6,.13,9-57.4,23.92-110.38,53.46-167.78,77.38h0Z"/>
    <path class="cls-4" d="M302.44,417c-1.23-8.24-11.47-13.27-11.47-13.27,0,0-10.96-4.6-13.22-20.33,0,1.13-.01,2.27-.02,3.4,0-1.13-.01-2.27-.02-3.4-2.25,15.73-13.22,20.33-13.22,20.33,0,0-10.24,5.03-11.47,13.27-.72,6.95,2.59,11.88,4.68,15.13,6.68-.02,13.35-.04,20.03-.06,6.68.02,13.35.04,20.03.06,2.08-3.25,5.4-8.18,4.68-15.13Z"/>
    <path class="cls-4" d="M252.47,430.76c-1.23-8.24-11.47-13.27-11.47-13.27,0,0-10.96-4.6-13.22-20.33,0,1.13,0,2.27-.02,3.4,0-1.13,0-2.27-.02-3.4-2.25,15.73-13.22,20.33-13.22,20.33,0,0-10.24,5.03-11.47,13.27-.72,6.95,2.59,11.88,4.68,15.13,6.68-.02,13.35-.04,20.03-.06,6.68.02,13.35.04,20.03.06,2.08-3.25,5.4-8.18,4.68-15.13h0Z"/>
    <path class="cls-4" d="M352.16,430.88c-1.23-8.24-11.47-13.27-11.47-13.27,0,0-10.96-4.6-13.22-20.33,0,1.13-.01,2.27-.02,3.4,0-1.13-.01-2.27-.02-3.4-2.25,15.73-13.22,20.33-13.22,20.33,0,0-10.24,5.03-11.47,13.27-.72,6.95,2.59,11.88,4.68,15.13,6.68-.02,13.35-.04,20.03-.06,6.68.02,13.35.04,20.03.06,2.08-3.25,5.4-8.18,4.68-15.13Z"/>
    <rect class="cls-4" x="257.24" y="433.9" width="41" height="5.3" rx=".56" ry=".56"/>
    <rect class="cls-4" x="207.77" y="447.61" width="41" height="5.3" rx=".56" ry=".56"/>
    <rect class="cls-4" x="306.77" y="447.73" width="41" height="5.3" rx=".56" ry=".56"/>
    <g>
      <path class="cls-4" d="M159.45,425.69c-4.32-1.54-8.65-3.07-12.97-4.61v-39.59c1.59-.8,3.19-1.59,4.78-2.39-1.12-1.01-9.49-4.78-10.92-4.95v-30.72c.91-.57,1.82-1.14,2.73-1.71-2.16-1.25-4.32-2.5-6.48-3.75-.5-1.06-1.55-2.94-3.58-4.61-1.92-1.58-3.84-2.26-4.95-2.56-1.74-32.69-3.49-65.38-5.23-98.07v-1.07c0,.18-.02.36-.03.53,0-.18-.02-.36-.03-.53v1.07c-1.74,32.69-3.49,65.38-5.23,98.07-1.11.3-3.03.98-4.95,2.56-2.03,1.67-3.09,3.55-3.58,4.61-2.16,1.25-4.32,2.5-6.48,3.75.91.57,1.82,1.14,2.73,1.71v30.72c-1.43.17-9.8,3.94-10.92,4.95,1.59.8,3.19,1.59,4.78,2.39v39.59c-4.32,1.54-8.65,3.07-12.97,4.61.11,8.42.73,53.12.84,61.54,10.37,6.66,9.67-5.61,14.11-.38,9.17,10.79,17.9,26.16,17.91,26.15h0c6.14,18.46,38.42,59.51,55.71,62.51.06-7.19.11-71.65.17-78.84,1.22-.7,2.45-1.4,3.67-2.1-4.72-2.48-9.44-4.97-14.16-7.45,0-.02.04-3.82.04-3.84s.04-3.82.04-3.84c1.18-.51,2.35-1.02,3.53-1.54-2.96-1.33-5.92-2.65-8.87-3.98.06-8.04.11-16.08.17-24.12s.11-16.08.17-24.12h-.03,0Z"/>
      <path class="cls-5" d="M106.07,415.68c.91-.46,4.57-.91,5.49-1.37.11-6.24.22-13.85.32-20.09.02-1.2-1.18-3.14-2.42-3.23-1.13-.08-2.38,1.48-3.23,3.87-.05,6.94-.11,13.87-.16,20.81h0Z"/>
      <path class="cls-5" d="M140.03,415.68c-.91-.46-4.57-.91-5.49-1.37-.11-6.24-.22-13.85-.32-20.09-.02-1.2,1.18-3.14,2.42-3.23,1.13-.08,2.38,1.48,3.23,3.87.05,6.94.11,13.87.16,20.81h0Z"/>
      <path class="cls-5" d="M110.42,369.26c.76-.38,3.79-.76,4.55-1.14.09-5.17.18-11.49.27-16.66.02-.99-.98-2.6-2.01-2.68-.94-.07-1.97,1.23-2.68,3.21-.04,5.75-.09,11.51-.13,17.26h0Z"/>
      <path class="cls-5" d="M133.67,369.26c-.76-.38-3.79-.76-4.55-1.14-.09-5.17-.18-11.49-.27-16.66-.02-.99.98-2.6,2.01-2.68.94-.07,1.97,1.23,2.68,3.21.04,5.75.09,11.51.13,17.26h0Z"/>
    </g>
    <path class="cls-1" d="M358.52,268.1c-2.24-46.77-37.47-87.56-83.33-101.42,5.11-12.62,6.48-26.78.69-39.44-7.34-16.06-22.98-17.38-36.29-7.59-12.19,8.97-18.92,26.31-21.79,42.45-57.78,8.19-88.05,55.88-80.92,89.81,3.38,16.06,16.02,26.33,29.85,28.1,17.17,2.19,34.15-9.62,36.07-27.2-17.87,2.13-23.82-8.78-23.75-22.73.11-23.56,15.72-41.8,37.07-49.02-.12,9.51.76,18.11,2.61,28.03-6.98,3.68-14.41,7.16-21.99,10.89v22.79c7.71-3.61,15.6-7.72,24.05-13.64,2.9,29.21,5.52,84.68-8.03,110.02-7.65-2.79-15.02-5.75-21.73-7.88-10.91-3.47-24.05-5.53-33.57,2.51-11.03,9.32-9.14,27.73,8.85,35.42,18.09,7.74,39.09.66,53.46-11.54,5.22,2.63,10.71,5.23,16.3,7.44,63.86,25.26,125.55-33.01,122.48-96.99h-.03ZM187,358.54c-16.42,1.43-17.44-15.93-3.84-16.51,2.06-.09,4.43.23,7.12,1.09,3.85,1.24,8.85,3.74,14.61,6.76-4.34,4.28-11.22,8.08-17.88,8.66h0ZM256.03,138.79c5.01,1.49,7.07,8.56,4.3,24.3-7.79-1.41-15.87-2.18-24.16-2.22,4.57-15.11,13.1-24.1,19.86-22.08h0ZM232.37,177.83c7.23-.49,14.35.29,21.43,1.76-5.2,8.63-12.37,15.31-20.62,20.94-1.48-7.39-1.66-15.2-.81-22.69h0ZM314.02,285.01c-8.19,40.68-38.54,69.27-82.19,60.11,20.07-24.84,35.84-64.45,45.83-104.5-20.71-3.5-32.84-13.23-39.35-25.44,10.51-9.4,20.4-20.2,28.12-32.01,40.99,15.11,55.61,61.99,47.59,101.84h0Z"/>
    <g class="cls-7">
      <g class="cls-7">
        <g class="cls-7">
          <path class="cls-5" d="M86.05,634.2l8.63-43.89c.22-1.13.59-2.42,1.11-3.87.52-1.45,1.31-2.78,2.38-4.01.66-.79,1.61-1.61,2.83-2.46,1.23-.85,2.71-1.47,4.45-1.87l28.03-6.42c2.03-.46,3.91-.69,5.66-.67,1.75.02,3.16.69,4.24,2.02.94,1.06,1.52,2.67,1.72,4.81.2,2.14-.08,5.17-.85,9.09-.18.93-.46,2.16-.83,3.69-.37,1.54-.88,3.17-1.51,4.88-.64,1.72-1.41,3.42-2.32,5.11-.91,1.68-1.99,3.14-3.24,4.36-1.42,1.36-3,2.45-4.76,3.27-1.75.82-3.33,1.39-4.73,1.71l-21.36,4.9-3.07,15.61-16.37,3.75ZM119.86,598.71c1.01-.23,2.01-.5,2.99-.8.98-.3,1.88-.91,2.71-1.84,1.07-1.23,1.81-2.9,2.23-5.01.14-.72.22-1.45.22-2.19,0-.74-.27-1.31-.84-1.73-.56-.46-1.27-.64-2.14-.54-.87.1-1.79.26-2.76.48l-9.05,2.08c-.68.16-1.22.39-1.62.7-.41.31-.74.65-.99,1-.25.35-.44.72-.56,1.09-.12.37-.21.71-.27,1.02l-1.66,8.42,11.73-2.69Z"/>
        </g>
        <g class="cls-7">
          <path class="cls-5" d="M176.65,613.43l7.29-37.09c.08-.41.12-.85.12-1.32,0-.47-.18-.86-.53-1.17-.31-.32-.66-.48-1.05-.46-.4.02-.83.08-1.32.19l-10.28,2.36c-.63.14-1.27.38-1.94.7-.66.33-1.33.91-2,1.75-.56.72-.97,1.48-1.24,2.28-.27.8-.48,1.54-.61,2.2-.26,1.34-.38,2.29-.35,2.85.03.56.08.88.16.96.33.91.88,1.4,1.65,1.47.77.07,1.52.02,2.24-.15l3.33-.76c.48-.11,1.13-.22,1.93-.33.81-.11,1.57-.09,2.31.06.73.15,1.33.52,1.79,1.1.46.58.57,1.52.31,2.81l-.24,1.24c-.32,1.65-.91,3.1-1.75,4.35s-1.79,2.54-2.83,3.86l-13.12,16.81-19.7,4.52,17.25-19.16.05-.23-2.17.5c-.63.14-1.31.23-2.06.25-.74.02-1.46-.07-2.16-.28-.7-.21-1.35-.56-1.97-1.06-.62-.5-1.09-1.2-1.42-2.11-.34-.86-.54-1.84-.59-2.96-.06-1.12-.03-2.29.07-3.52.1-1.23.26-2.5.47-3.8.21-1.3.44-2.6.7-3.88.44-2.21.99-4.44,1.66-6.69.67-2.24,1.78-4.48,3.32-6.7,1.79-2.52,3.74-4.34,5.88-5.44,2.13-1.1,4.57-1.97,7.32-2.6l29.11-6.67c.96-.22,1.92-.22,2.87,0,.95.23,1.69.62,2.22,1.19.64.74.94,1.67.91,2.78-.04,1.12-.15,2.16-.34,3.14l-8.9,45.28-16.37,3.75Z"/>
          <path class="cls-5" d="M202.18,594.74l22.74-5.21c1.59-.36,2.76-.67,3.5-.91.74-.24,1.33-.54,1.76-.88.76-.57,1.28-1.19,1.58-1.88.3-.68.5-1.33.63-1.95.08-.41.12-.93.13-1.54,0-.62-.28-1.08-.87-1.39-.37-.21-.94-.26-1.7-.16-.76.1-1.88.32-3.38.66l-21.87,5.01,2.31-11.75,21.51-4.93c.97-.22,1.95-.47,2.95-.75,1-.28,1.82-.76,2.46-1.45.52-.51.88-1.07,1.09-1.69.21-.61.36-1.15.46-1.62.12-.62.16-1.17.12-1.65-.04-.48-.35-.81-.92-.97-.27-.04-.7-.02-1.29.04-.59.06-1.66.27-3.2.62l-22.38,5.13,2.64-13.45,28.1-6.44c1.16-.27,2.35-.53,3.58-.78,1.23-.25,2.41-.4,3.54-.44,1.14-.04,2.2.07,3.18.34.99.27,1.82.79,2.49,1.57.52.62.89,1.33,1.1,2.15.21.81.32,1.67.32,2.58,0,.91-.07,1.86-.22,2.85s-.32,1.95-.5,2.88c-.32,1.65-.79,3.29-1.38,4.93-.6,1.64-1.68,3.28-3.25,4.91-.35.38-.95.91-1.8,1.59-.85.69-1.93,1.3-3.23,1.85l-.06.31c.48-.11,1.03-.2,1.64-.27.61-.07,1.23-.05,1.86.05s1.2.35,1.72.75c.52.4.94.98,1.25,1.74.46,1.17.62,2.49.47,3.95-.15,1.46-.37,2.94-.66,4.43-.19.98-.43,2.03-.72,3.16s-.69,2.26-1.19,3.41c-.5,1.15-1.14,2.29-1.92,3.43-.78,1.14-1.75,2.21-2.91,3.21-1.11.94-2.29,1.72-3.54,2.32s-2.53,1.12-3.83,1.54c-1.3.42-2.56.76-3.76,1.01-1.2.25-2.26.48-3.18.69l-28.03,6.42,2.64-13.45Z"/>
          <path class="cls-5" d="M274.68,544.99c.58-1.07,1.21-2.07,1.91-3.02.69-.95,1.53-1.8,2.51-2.57.98-.76,2.14-1.45,3.48-2.05,1.34-.6,3-1.13,4.98-1.58,1.21-.28,2.37-.48,3.47-.61,1.11-.13,2.12-.09,3.02.12s1.69.66,2.36,1.34c.67.68,1.15,1.71,1.44,3.07l9.29,43.84-17.24,3.95-1.8-10.21-18.25,4.18-6.17,12.04-17.24,3.95,28.22-52.44ZM276.21,568.18l10.43-2.39-1.87-12.63c-.06-.18-.12-.4-.18-.66-.07-.26-.15-.37-.24-.35-.1.02-.23.19-.41.5-.18.31-.33.58-.47.81l-7.25,14.72Z"/>
          <path class="cls-5" d="M360.45,571.3l-16.37,3.75,4.22-21.48-18.4,4.22-4.22,21.48-16.37,3.75,10.64-54.09,16.37-3.75-3.77,19.16,18.4-4.22,3.77-19.16,16.37-3.75-10.64,54.09Z"/>
          <path class="cls-5" d="M394.69,511.8l-3.84,19.55,22.74-5.21c.72-.17,1.53-.3,2.43-.41.9-.11,1.76-.06,2.6.14.84.2,1.6.62,2.28,1.25.68.63,1.22,1.59,1.61,2.88.46,1.67.62,3.41.49,5.24-.13,1.83-.39,3.72-.77,5.67-.38,1.91-.92,3.96-1.63,6.17-.71,2.2-1.73,4.25-3.07,6.13-.45.65-1.04,1.33-1.75,2.06-.72.73-1.54,1.46-2.47,2.19-.93.73-1.98,1.39-3.15,1.98-1.18.59-2.44,1.04-3.79,1.35l-31.43,7.2c-1.11.25-2.06.21-2.85-.12-.79-.34-1.38-.78-1.78-1.33-.7-.92-1.03-2.03-1.01-3.31.02-1.28.16-2.54.4-3.78l8.63-43.89,16.37-3.75ZM387.34,549.2c-.08.41-.15.83-.21,1.27-.06.43,0,.78.18,1.03.21.35.56.5,1.05.46.49-.04.98-.11,1.46-.23l8.47-1.94c1.26-.29,2.25-.51,2.97-.68.72-.17,1.36-.46,1.9-.88.44-.35.9-.9,1.4-1.65.49-.75.87-1.77,1.12-3.06.14-.72.18-1.41.13-2.06-.06-.65-.5-1.08-1.34-1.28-.49-.08-1.06-.05-1.71.1-.65.15-1.46.33-2.42.56l-11.88,2.72-1.11,5.64Z"/>
        </g>
      </g>
    </g>
    <path class="cls-4" d="M123.69,237.73c0,.5-.41.91-.91.91s-.91-.41-.91-.91.41-.91.91-.91.91.41.91.91Z"/>
    <g>
      <rect class="cls-4" x="122.42" y="227.34" width=".67" height="9.68"/>
      <rect class="cls-4" x="120.24" y="229.34" width="5.03" height=".67"/>
      <rect class="cls-4" x="120.98" y="233.54" width="3.48" height=".67" transform="translate(-73.18 56.73) rotate(-20.19)"/>
    </g>
    <g>
      <rect class="cls-4" x="325.58" y="394.8" width="3.48" height=".67" transform="translate(-116.26 137.25) rotate(-20.19)"/>
      <g>
        <path class="cls-4" d="M328.4,398.98c0,.5-.41.91-.91.91s-.91-.41-.91-.91.41-.91.91-.91.91.41.91.91Z"/>
        <rect class="cls-4" x="327.14" y="388.59" width=".67" height="9.68"/>
        <g>
          <rect class="cls-4" x="324.96" y="390.55" width="5.03" height=".67"/>
          <circle class="cls-4" cx="330.1" cy="390.89" r=".67"/>
          <circle class="cls-4" cx="324.82" cy="390.89" r=".67"/>
        </g>
        <circle class="cls-4" cx="327.51" cy="388.18" r=".67"/>
        <circle class="cls-4" cx="329.29" cy="394.4" r=".67"/>
        <circle class="cls-4" cx="325.66" cy="395.8" r=".67"/>
      </g>
    </g>
    <g>
      <rect class="cls-4" x="225.91" y="394.79" width="3.48" height=".67" transform="translate(-122.38 102.85) rotate(-20.19)"/>
      <g>
        <path class="cls-4" d="M228.73,398.98c0,.5-.41.91-.91.91s-.91-.41-.91-.91.41-.91.91-.91.91.41.91.91Z"/>
        <rect class="cls-4" x="227.47" y="388.59" width=".67" height="9.68"/>
        <g>
          <rect class="cls-4" x="225.29" y="390.55" width="5.03" height=".67"/>
          <circle class="cls-4" cx="230.43" cy="390.89" r=".67"/>
          <circle class="cls-4" cx="225.15" cy="390.89" r=".67"/>
        </g>
        <circle class="cls-4" cx="227.84" cy="388.18" r=".67"/>
        <circle class="cls-4" cx="229.62" cy="394.4" r=".67"/>
        <circle class="cls-4" cx="225.99" cy="395.8" r=".67"/>
      </g>
    </g>
    <g>
      <rect class="cls-4" x="275.85" y="381.57" width="3.48" height=".67" transform="translate(-114.75 119.27) rotate(-20.19)"/>
      <g>
        <circle class="cls-4" cx="277.76" cy="385.76" r=".91"/>
        <rect class="cls-4" x="277.4" y="375.37" width=".67" height="9.68"/>
        <g>
          <rect class="cls-4" x="275.22" y="377.33" width="5.03" height=".67"/>
          <circle class="cls-4" cx="280.37" cy="377.67" r=".67"/>
          <circle class="cls-4" cx="275.08" cy="377.67" r=".67"/>
        </g>
        <circle class="cls-4" cx="277.77" cy="374.95" r=".67"/>
        <circle class="cls-4" cx="279.55" cy="381.18" r=".67"/>
        <circle class="cls-4" cx="275.93" cy="382.58" r=".67"/>
      </g>
    </g>
  </g>
</svg>